<?xml version="1.0" encoding="UTF-8"?>
<!-- Generator: Adobe Illustrator 26.5.1, SVG Export Plug-In . SVG Version: 6.00 Build 0)  -->
<svg xmlns="http://www.w3.org/2000/svg" xmlns:xlink="http://www.w3.org/1999/xlink" version="1.1" id="Capa_1" x="0px" y="0px" viewBox="0 0 512 512" style="enable-background:new 0 0 512 512;" xml:space="preserve" width="512" height="512">
<g>
	<path style="fill:#FFFFFF;" d="M65.149,512c-7.767,0-14.216-5.998-14.779-13.742c-1.367-18.816-2.877-47.658-2.314-78.376   c-0.784-28.089,2.116-56.123,8.623-83.33c0.002-0.012,0.008-0.036,0.008-0.036c0.383-1.667,0.792-3.28,1.201-4.893   c2.443-9.49,6.666-18.17,12.61-25.989c-3.944-25.875-3.32-52.276,1.869-78.583c5.479-39.036,17.663-73.403,36.231-102.21   c-2.787-4.147-4.858-8.763-6.072-13.632c-3.269-13.111-0.364-27.969,7.769-39.743c6.36-9.209,15.893-16.675,27.092-21.277   c0.949-12.664,7.59-25.231,18.695-34.092C166.694,7.632,180.738,2.6,199.014,0.715C203.607,0.241,208.331,0,213.052,0   c18.085,0,37.008,3.47,56.33,10.323c0.094-0.007,0.188-0.013,0.282-0.018c0.367-0.018,9.101-0.463,20.825-0.463   c50.616,0,63.081,7.578,69.01,15.765c4.764,6.58,6.828,15.225,6.228,26.233c37.238,17.935,64.357,47.436,78.784,85.902   c11.299,31.253,2.565,60.995-5.141,87.232c-4.206,14.321-8.183,27.863-9.209,41.197c0.004,0.121,0.007,0.241,0.011,0.362   c4.401,2.829,8.376,6.015,11.878,9.524c9.753,9.743,22.661,31.442,21.994,106.878c-0.391,44.166-5.39,91.65-8.336,116.025   c-0.9,7.443-7.215,13.04-14.71,13.04H65.149z"/>
	<g>
		<g>
			<g>
				<path style="fill:#EDC9FF;" d="M86.021,230.403c4.874-35.062,16.093-69.779,35.811-99.301c0.024-0.004,0.02-0.029,0.02-0.029      c64.741-107.557,259.676-115.616,307.825,12.758c15.158,41.935-12.453,81.616-15.31,122.901      c1.432,50.565,11.422,101.506-29.806,140.579C245.413,554.92,50.646,408.059,86.021,230.403z"/>
			</g>
		</g>
		<g>
			<g>
				<path style="fill:#FFA1A1;" d="M440.035,498.067H96.069l-30.006-37.908c0,0-3.433-15.139-4.149-39.464      c-0.642-22.103,0.963-51.837,9.409-84.682c7.631-29.635,36.204-45.342,66.358-53.565h0.025      c3.606-0.988,7.211-1.877,10.817-2.667c4.519-0.988,9.039-1.827,13.459-2.519c1.753-0.272,3.507-0.543,5.236-0.79      c1.729-0.247,3.457-0.469,5.161-0.667c2.544-0.321,5.038-0.593,7.458-0.84c23.091-2.223,40.576-1.358,40.576-1.358l0.222-3.457      l0.716-11.064l0.37-5.655l0.148-2.247l1.186-17.658l16.151-14.916c0.025,0,0.049,0,0.049-0.025l2.593-2.371      c0-0.025,0-0.049,0.025-0.049c0-0.025,0-0.025,0.025-0.025l42.131-38.847l15.213-14.003l13.78,13.78l0.716,13.039l3.186,58.208      l0.889,16.201l0.469,8.421c0,0,0.79-0.222,2.272-0.568c0.988-0.247,2.247-0.543,3.779-0.864c0.766-0.173,1.581-0.346,2.47-0.519      c0.025,0,0.025,0,0.025,0c0.889-0.173,1.827-0.37,2.84-0.568h0.025c1.507-0.272,3.136-0.568,4.89-0.864      c1.161-0.173,2.371-0.371,3.63-0.568c0.025,0,0.025,0,0.025,0c1.26-0.173,2.568-0.371,3.902-0.543c0,0,0,0,0.025,0      c10.422-1.358,23.239-2.247,36.303-1.284c3.902,0.272,7.829,0.716,11.731,1.383h0.025c15.065,2.544,29.635,8.1,40.378,18.868      C458.804,315.589,446.357,445.761,440.035,498.067z"/>
			</g>
			<g style="opacity:0.23;">
				<path style="fill:#302945;" d="M369.73,312.12c-10.136-9.467-26.472-11.525-38.64-4.862      c-12.169,6.663-19.217,21.533-16.696,35.167c-5.094-12.529-19.115-20.812-32.569-19.192      c-13.455,1.595-25.134,12.94-27.141,26.344c-2.496-13.455-11.654-26.318-24.851-30.022c-12.426-3.499-27.553,3.602-31.051,15.77      c1.878-10.548-4.579-22.176-14.715-25.829c-10.882-3.936-24.337,1.929-28.865,12.58c-0.36-9.261-1.492-18.728-5.737-26.961      c-2.676-5.145-6.792-9.776-11.782-12.683c40.004-10.959,82.735-8.824,82.735-8.824l1.312-20.195l1.312-19.886l60.996-56.237      l15.204-14.021l13.789,13.789l5.248,95.881c0,0,37.303-10.213,71.93-4.399C377.191,279.113,368.701,295.424,369.73,312.12z"/>
			</g>
			<g style="opacity:0.25;">
				<path style="fill:#302945;" d="M301.818,212.26c-0.72,5.917-3.318,11.422-5.994,16.773c-4.374,8.747-9.107,17.493-15.796,24.645      c-6.689,7.178-15.615,12.683-25.366,13.455c-12.271,0.978-23.539-5.402-32.929-13.712l1.312-19.886l60.996-56.237      C294.923,185.71,303.515,198.676,301.818,212.26z"/>
			</g>
			<g>
				<g>
					<g>
						<g>
							<g>
								<path style="fill:#FFA1A1;" d="M355.074,148.539c-0.764-4.546-2.337-9.159-5.653-12.362          c-4.836-4.67-12.274-5.042-18.672-2.593c1.445-6.22,2.212-12.7,2.212-19.361c0-47.159-38.23-85.388-85.389-85.388          s-85.388,38.23-85.388,85.388c0,4.958,0.447,9.811,1.258,14.537c1.063,12.666,3.877,62.185,14.944,86.396          c14.012,30.652,66.997,44.665,66.997,44.665s33.498-10.291,53.204-41.381c6.781-10.699,5.846-23.803,10.054-36.974          c0.524,2.029,1.313,3.912,2.412,5.587c4.286,6.535,13.305,8.914,20.829,6.804c7.525-2.11,13.559-7.965,17.527-14.698          C354.787,170.031,356.83,158.987,355.074,148.539z"/>
							</g>
						</g>
						<g style="opacity:0.23;">
							<g>
								<path style="fill:#302945;" d="M355.074,148.539c-0.764-4.546-2.337-9.159-5.653-12.362          c-4.836-4.67-12.274-5.042-18.672-2.593c1.445-6.22,2.212-12.7,2.212-19.361c0-47.159-38.23-85.388-85.389-85.388          s-85.388,38.23-85.388,85.388c0,4.958,0.447,9.811,1.258,14.537c1.063,12.666,3.877,62.185,14.944,86.396          c14.012,30.652,66.997,44.665,66.997,44.665s33.498-10.291,53.204-41.381c6.781-10.699,5.846-23.803,10.054-36.974          c0.524,2.029,1.313,3.912,2.412,5.587c4.286,6.535,13.305,8.914,20.829,6.804c7.525-2.11,13.559-7.965,17.527-14.698          C354.787,170.031,356.83,158.987,355.074,148.539z"/>
							</g>
						</g>
						<g>
							
								<ellipse transform="matrix(0.0985 -0.9951 0.9951 0.0985 102.2477 509.029)" style="fill:#FFB861;" cx="332.085" cy="198.078" rx="13.137" ry="13.137"/>
						</g>
						<g>
							<path style="fill:#F7EDE5;" d="M333.63,202.117c1.143,1.121,2.747,1.995,4.303,1.616c1.444-0.352,2.449-1.694,2.973-3.085         c1.439-3.822-0.899-12.297-6.282-11.682C328.313,189.687,330.69,199.233,333.63,202.117z"/>
						</g>
						<g>
							<g>
								<g>
									<path style="fill:#EDC9FF;" d="M220.433,210.171c0,0,5.076-2.56,13.263,1.633c0,0,3.468-9.606,11.194-8.894           c0,0,0.212,13.57-6.237,15.952C232.204,221.245,220.433,210.171,220.433,210.171z"/>
								</g>
							</g>
							<g>
								<g>
									<path style="fill:#302945;" d="M230.492,200.268c-0.23,0-0.463-0.055-0.674-0.171l-15.436-8.493           c-0.53-0.291-0.749-0.883-0.519-1.4c0.019-0.043,1.928-4.43,3.201-14.638c1.284-10.296-0.638-26.823-0.657-26.989           c-0.075-0.63,0.437-1.194,1.144-1.26c0.69-0.069,1.339,0.39,1.413,1.02c0.082,0.687,1.971,16.937,0.657,27.482           c-0.999,8.007-2.369,12.517-3.011,14.315l14.559,8.011c0.604,0.333,0.791,1.038,0.418,1.578           C231.346,200.074,230.923,200.268,230.492,200.268z"/>
								</g>
							</g>
							<g>
								<g>
									<path style="fill:#302945;" d="M219.034,208.614c2.383,2.012,5.319,3.571,8.365,4.507c3.029,0.917,6.547,0.958,9.166-0.956           c2.621-1.849,4.573-4.552,6.19-7.33c1.62-2.788,2.997-5.776,3.937-8.822l0.007-0.024c0.211-0.684,0.937-1.068,1.621-0.857           c0.684,0.211,1.068,0.937,0.856,1.621c-0.03,0.096-0.073,0.192-0.122,0.275c-1.721,2.923-3.468,5.697-5.384,8.403           c-2.001,2.619-4.019,5.297-6.798,7.191c-2.811,1.953-6.463,2.03-9.678,1.353c-3.306-0.614-6.39-1.807-9.568-3.208           c-0.658-0.29-0.957-1.06-0.667-1.718c0.29-0.658,1.059-0.957,1.718-0.666c0.115,0.05,0.219,0.115,0.31,0.192           L219.034,208.614z"/>
								</g>
							</g>
							<g>
								<g>
									<path style="fill:#302945;" d="M180.126,168.595c1.911,1.017,3.632,2.133,5.338,2.928c1.69,0.785,3.388,1.302,4.961,1.324           c1.544,0.031,2.973-0.425,4.439-1.339c1.452-0.915,2.809-2.234,4.152-3.733l0.042-0.047           c0.485-0.542,1.317-0.587,1.859-0.102c0.377,0.338,0.514,0.846,0.398,1.305c-0.575,2.262-1.816,4.414-3.707,6.109           c-1.855,1.69-4.613,2.846-7.325,2.69c-2.675-0.11-5.073-1.119-7.013-2.479c-1.946-1.359-3.48-2.982-4.801-4.69           c-0.445-0.574-0.34-1.401,0.235-1.846C179.125,168.39,179.683,168.361,180.126,168.595z"/>
								</g>
								<g>
									<path style="fill:#302945;" d="M247.765,161.12c1.572,1.232,3.667,2.005,5.812,2.661c2.131,0.66,4.102,0.919,5.903,0.566           c1.747-0.344,3.427-1.351,5.049-2.778c1.63-1.42,3.173-3.2,4.948-4.926c0.52-0.506,1.352-0.495,1.857,0.025           c0.376,0.387,0.466,0.947,0.273,1.417c-0.942,2.285-2.143,4.539-3.914,6.592c-1.739,2.026-4.256,3.896-7.324,4.437           c-3.001,0.542-5.988-0.174-8.335-1.315c-2.321-1.112-4.784-2.527-6.302-5.101c-0.363-0.615-0.158-1.407,0.456-1.769           c0.47-0.277,1.045-0.223,1.451,0.094L247.765,161.12z"/>
								</g>
								<g>
									<g>
										<path style="fill:#302945;" d="M169.642,146.402c0.408-2.528,1.939-4.846,3.925-6.513            c1.986-1.704,4.464-2.783,7.074-3.215c5.198-0.761,10.415,1.108,13.714,4.604c0.504,0.534,0.48,1.376-0.055,1.879            c-0.35,0.33-0.831,0.433-1.263,0.316l-0.043-0.012c-4.137-1.139-7.934-1.799-11.497-1.22            c-1.742,0.24-3.456,0.853-5.064,1.693c-1.604,0.87-3.07,1.993-4.437,3.506l-0.059,0.064            c-0.492,0.544-1.331,0.587-1.875,0.095C169.718,147.288,169.576,146.829,169.642,146.402z"/>
									</g>
									<g>
										<path style="fill:#302945;" d="M247.43,137.904c0.556-2.612,2.432-4.843,4.692-6.316c2.285-1.474,5.018-2.247,7.787-2.206            c2.729,0.039,5.365,0.847,7.574,2.17c2.2,1.344,4.054,3.152,5.168,5.42c0.339,0.689,0.055,1.521-0.634,1.859            c-0.326,0.16-0.684,0.181-1.007,0.085l-0.065-0.02c-2.181-0.65-4.062-1.276-5.907-1.677            c-1.829-0.421-3.559-0.654-5.238-0.679c-1.634-0.022-3.316,0.175-5,0.609c-1.703,0.43-3.356,1.092-5.223,2.169            l-0.113,0.065c-0.659,0.38-1.501,0.154-1.881-0.506C247.408,138.573,247.363,138.225,247.43,137.904z"/>
									</g>
								</g>
							</g>
						</g>
					</g>
					<g>
						<g>
							<g>
								<path style="fill:#302945;" d="M320.72,183.326c-0.068,0-0.138-0.005-0.207-0.016c-0.702-0.114-1.178-0.775-1.064-1.476          c1.652-10.152,4.492-18.34,8.682-25.033c5.183-8.278,12.519-14.174,20.658-16.604c0.679-0.205,1.398,0.185,1.6,0.864          c0.204,0.681-0.183,1.397-0.864,1.601c-7.539,2.251-14.363,7.757-19.213,15.503c-4.004,6.398-6.728,14.274-8.323,24.08          C321.886,182.878,321.34,183.326,320.72,183.326z"/>
							</g>
						</g>
						<g>
							<g>
								<path style="fill:#302945;" d="M342.611,173.743c-0.564,0-1.081-0.374-1.239-0.946c-0.824-2.996-2.846-5.592-5.547-7.124          c-2.704-1.532-5.97-1.934-8.961-1.1c-0.677,0.19-1.393-0.211-1.584-0.896c-0.19-0.683,0.211-1.393,0.896-1.584          c3.649-1.012,7.627-0.522,10.919,1.342c3.291,1.866,5.754,5.03,6.758,8.681c0.189,0.685-0.213,1.392-0.899,1.58          C342.84,173.728,342.724,173.743,342.611,173.743z"/>
							</g>
						</g>
					</g>
				</g>
			</g>
			<g>
				<path style="fill:#302945;" d="M220.439,258.9c0,0,58.843,11.145,96.734-10.699l1.337,16.048c0,0-21.566,9.036-55.276,10.253      c-26.344,0.951-43.686-4.681-43.686-4.681L220.439,258.9z"/>
			</g>
			<g>
				<path style="fill:#302945;" d="M269.466,25.988L256.33,71.091c0,0-3.065,16.202,9.196,28.463      c12.261,12.261,29.339,13.574,29.339,13.574s-9.633,12.261,2.19,27.587c11.823,15.326,15.764,21.894,15.764,21.894      s12.261-26.93,19.267-29.12c7.006-2.189,25.835,1.095,23.646,24.741c0,0,24.522-34.593,15.764-53.422      c-8.758-18.829-27.587-25.398-27.587-25.398s11.823-31.528,2.627-44.227C337.339,22.485,269.466,25.988,269.466,25.988z"/>
			</g>
			<g>
				<path style="fill:#302945;" d="M162.59,118.379c0.07-12.506,25.589-0.837,33.121-10.821c7.531-9.984,8.638-23.131,7.687-35.6      c3.335,8.803,7.756,17.504,14.89,23.645c7.134,6.141,17.469,9.257,26.232,5.819c10.038-3.938,15.286-14.853,18.69-25.084      c5.132-15.424,8.241-31.52,9.224-47.745c-23.051-9.452-48.08-14.81-72.861-12.252c-12.531,1.294-25.362,4.37-35.21,12.226      c-9.848,7.857-15.943,21.436-12.021,33.408c-2.632,0.246-5.204,0.947-7.699,1.823c-9.172,3.218-17.594,8.979-23.118,16.978      c-5.524,7.998-7.934,18.305-5.583,27.737c2.351,9.432,9.746,17.668,19.145,20.148c-6.268,9.522-3.834,23.763,3.109,32.805      c6.943,9.042,18.354,13.942,29.724,14.776C167.92,176.239,162.558,124.067,162.59,118.379z"/>
			</g>
			<g>
				<g>
					<path style="fill:#EDC9FF;" d="M336.464,102.344c0,5.288-1.686,10.231-4.657,14.499c-0.229,0.344-0.47,0.688-0.746,1.032       c-6.079,8.006-16.735,13.305-28.859,13.305c-18.926,0-34.262-12.915-34.262-28.836c0-2.443,0.356-4.817,1.044-7.077       c0.115-0.379,0.229-0.757,0.367-1.136c4.198-11.929,17.32-20.635,32.851-20.635c8.052,0,15.451,2.329,21.301,6.263       c0.195,0.115,0.378,0.241,0.562,0.367c0.31,0.229,0.619,0.447,0.918,0.688c0.069,0.034,0.137,0.092,0.206,0.149       C332.116,86.24,336.464,93.856,336.464,102.344z"/>
				</g>
				<g>
					<g>
						<g>
							<path style="fill:#302945;" d="M331.806,116.843c-0.229,0.344-0.47,0.688-0.746,1.032         c-15.841-2.088-31.899-4.749-46.179-11.975c-5.712-2.89-11.057-6.458-15.898-10.633c0.115-0.379,0.229-0.757,0.367-1.136         c4.187,3.636,8.74,6.825,13.592,9.497c0.321,0.184,0.642,0.356,0.975,0.516c0.482,0.264,0.964,0.516,1.457,0.769         c3.521,1.778,7.146,3.269,10.862,4.554c0.379,0.138,0.769,0.264,1.147,0.39c5.46,1.812,11.092,3.166,16.793,4.256         c0.39,0.08,0.78,0.16,1.17,0.218C320.807,115.352,326.312,116.132,331.806,116.843z"/>
						</g>
					</g>
					<g>
						<g>
							<path style="fill:#302945;" d="M324.982,80.815c-0.298-0.241-0.608-0.459-0.918-0.688c0.012,0.252,0.012,0.505,0.012,0.757         c0.137,8.316-1.56,16.632-4.909,24.237c-0.264,0.585-0.528,1.17-0.815,1.743c-1.204,2.512-2.604,4.944-4.175,7.249         c-0.012,0-0.012,0.011-0.012,0.011c-0.172,0.252-0.115,0.596,0.138,0.769c0.092,0.069,0.206,0.103,0.31,0.103         c0.184,0,0.356-0.092,0.459-0.241c0.092-0.138,0.195-0.275,0.275-0.424c1.48-2.191,2.799-4.485,3.946-6.859v-0.011         c0.069-0.137,0.138-0.252,0.195-0.39c0.012-0.012,0.012-0.023,0.012-0.034c3.865-8.11,5.827-17.102,5.689-26.072         L324.982,80.815z"/>
						</g>
					</g>
					<g>
						<g>
							<path style="fill:#302945;" d="M324.982,80.815c-0.092,0.08-0.207,0.115-0.321,0.103c-0.195-0.011-0.39-0.023-0.585-0.034         c-6.366-0.333-13.088,1.158-19.305,4.244c-0.172,0.092-0.344,0.172-0.516,0.264c-0.218,0.103-0.424,0.218-0.642,0.344         c-0.401,0.207-0.803,0.425-1.193,0.654c-0.436,0.241-0.86,0.493-1.285,0.757c-6.469,3.992-12.262,9.715-17.217,16.999         c-0.092,0.126-0.184,0.252-0.264,0.379c-0.115,0.16-0.287,0.252-0.459,0.252c-0.115,0-0.218-0.035-0.31-0.103         c-0.252-0.161-0.321-0.505-0.149-0.757c0.069-0.092,0.126-0.195,0.207-0.287c5.047-7.467,10.977-13.34,17.607-17.423         c7.192-4.428,15.29-6.699,22.952-6.446c0.195,0.115,0.378,0.241,0.562,0.367C324.374,80.356,324.683,80.574,324.982,80.815z"/>
						</g>
					</g>
					<g>
						<g>
							<path style="fill:#302945;" d="M318.948,107.603c-0.27,0-0.506-0.198-0.546-0.472c-1.307-8.97-7.072-17.223-15.044-21.538         c-0.268-0.145-0.368-0.48-0.223-0.748c0.146-0.266,0.482-0.366,0.748-0.223c8.273,4.478,14.255,13.042,15.612,22.35         c0.044,0.301-0.165,0.582-0.467,0.626C319.001,107.601,318.974,107.603,318.948,107.603z"/>
						</g>
					</g>
					<g>
						<g>
							<path style="fill:#302945;" d="M296.872,110.782c-0.273,0-0.51-0.202-0.547-0.48c-1.163-8.781,1.447-18.152,6.983-25.069         c0.189-0.238,0.537-0.277,0.776-0.086c0.238,0.19,0.276,0.538,0.086,0.776c-5.352,6.685-7.875,15.745-6.749,24.234         c0.04,0.302-0.173,0.579-0.475,0.62C296.921,110.781,296.896,110.782,296.872,110.782z"/>
						</g>
					</g>
					<g>
						<g>
							<path style="fill:#302945;" d="M304.961,106.538c-4.873,0-8.093-3.231-8.232-3.373c-0.148-0.151-0.197-0.374-0.125-0.573         c0.035-0.095,3.57-9.513,15.292-10.903c0.302-0.036,0.577,0.18,0.613,0.483c0.036,0.302-0.181,0.577-0.483,0.613         c-9.82,1.166-13.52,8.227-14.245,9.851c0.86,0.75,3.737,2.967,7.644,2.788c3.651-0.171,7.217-2.36,10.599-6.507         c0.192-0.236,0.539-0.272,0.777-0.079c0.236,0.193,0.272,0.541,0.079,0.777c-3.593,4.407-7.436,6.733-11.419,6.913         C305.293,106.534,305.126,106.538,304.961,106.538z"/>
						</g>
					</g>
				</g>
			</g>
			<g>
				<path style="fill:#302945;" d="M440.035,498.067H64.187c-1.358-18.67-2.84-47.194-2.272-77.372      c0.543-27.363,2.741-56.085,8.248-79.965c0.371-1.605,0.766-3.161,1.161-4.717c7.631-29.635,36.204-45.342,66.358-53.565h0.025      c1.235,0.741,2.42,1.556,3.556,2.47c0.617,0.519,1.235,1.062,1.827,1.655c0.346,0.296,0.667,0.617,0.963,0.963      c0.642,0.667,1.259,1.358,1.828,2.074c0.445,0.568,0.889,1.161,1.309,1.778c0.346,0.469,0.667,0.963,0.988,1.482      c0.469,0.741,0.889,1.482,1.284,2.247c1.605,3.087,2.741,6.347,3.581,9.706c0.272,1.062,0.519,2.124,0.716,3.235      c0.025,0.049,0.025,0.123,0.049,0.222c0.173,0.988,0.346,1.951,0.469,2.939c0.049,0.198,0.074,0.42,0.099,0.642      c0.148,1.087,0.272,2.173,0.37,3.26c0.123,1.161,0.198,2.322,0.272,3.482c0.099,1.136,0.148,2.297,0.197,3.433      c0,0.025,0,0.025,0,0.049c0.173-0.395,0.346-0.79,0.543-1.161c0.173-0.37,0.395-0.766,0.593-1.111      c0.222-0.37,0.445-0.716,0.667-1.087c0.247-0.346,0.494-0.691,0.741-1.012c0-0.025,0-0.025,0-0.025      c0.691-0.889,1.432-1.729,2.247-2.519c0.494-0.494,1.037-0.963,1.581-1.408c0.543-0.445,1.136-0.864,1.704-1.259      c0.593-0.395,1.21-0.766,1.827-1.111c0.617-0.346,1.259-0.667,1.902-0.963c0.395-0.173,0.815-0.346,1.21-0.519      c0.395-0.123,0.766-0.272,1.161-0.395c0.395-0.148,0.815-0.272,1.21-0.371c1.235-0.346,2.494-0.593,3.754-0.716      c0.37-0.049,0.766-0.074,1.136-0.099c0.148-0.025,0.272-0.025,0.42-0.025c2.766-0.123,5.532,0.272,8.15,1.21      c1.679,0.617,3.26,1.432,4.717,2.42c0.469,0.346,0.963,0.691,1.408,1.062c0.469,0.37,0.914,0.766,1.334,1.185      c0.296,0.272,0.593,0.568,0.864,0.864c0.247,0.247,0.469,0.494,0.691,0.766c0.321,0.346,0.617,0.716,0.889,1.062      c0.321,0.42,0.617,0.84,0.914,1.259c1.704,2.519,2.964,5.384,3.63,8.347c0.099,0.395,0.173,0.79,0.247,1.21      c0.049,0.247,0.074,0.494,0.124,0.741c0.074,0.469,0.123,0.938,0.148,1.408c0.049,0.593,0.074,1.185,0.074,1.778      c0,1.235-0.099,2.47-0.321,3.704c0.222-0.741,0.469-1.457,0.766-2.148c0.148-0.346,0.296-0.691,0.469-1.037      c0.148-0.296,0.272-0.568,0.444-0.84c0.222-0.42,0.469-0.84,0.741-1.259c0.346-0.519,0.691-1.037,1.087-1.531      c0-0.025,0.025-0.025,0.049-0.049c0.346-0.469,0.741-0.914,1.111-1.334c0.074-0.074,0.148-0.124,0.197-0.198      c0.247-0.272,0.519-0.543,0.79-0.766c0.173-0.198,0.346-0.37,0.519-0.519c0.963-0.889,2-1.679,3.112-2.42      c1.111-0.716,2.272-1.358,3.482-1.926c0.445-0.222,0.914-0.42,1.383-0.593c0.321-0.148,0.642-0.272,0.988-0.37      c0.395-0.148,0.766-0.296,1.161-0.395c0.099-0.049,0.222-0.074,0.321-0.099c0.469-0.148,0.963-0.272,1.432-0.395      c0.222-0.049,0.469-0.123,0.716-0.148c0.494-0.124,0.988-0.222,1.482-0.296c0.519-0.074,1.037-0.148,1.556-0.173      c0.346-0.049,0.667-0.074,1.012-0.099c2.791-0.173,5.581,0.074,8.248,0.84c0.124,0.025,0.222,0.074,0.346,0.123      c0.494,0.124,0.963,0.272,1.432,0.445c0.617,0.222,1.21,0.444,1.803,0.716c0.395,0.148,0.766,0.321,1.161,0.519      c0.37,0.173,0.741,0.37,1.111,0.568c0.222,0.124,0.444,0.247,0.667,0.37c0.395,0.222,0.79,0.445,1.161,0.692      c0.074,0.049,0.123,0.074,0.198,0.123c0.197,0.124,0.395,0.247,0.593,0.371c0.074,0.049,0.173,0.123,0.247,0.173      c0.395,0.272,0.79,0.568,1.185,0.864c0.395,0.296,0.79,0.593,1.185,0.914c0.148,0.123,0.321,0.272,0.469,0.395      c0.37,0.321,0.716,0.642,1.062,0.963c0.445,0.395,0.864,0.815,1.284,1.235c0.445,0.469,0.889,0.939,1.309,1.432      c0.42,0.469,0.84,0.938,1.235,1.457c0.494,0.617,0.963,1.259,1.432,1.926c1.087,1.556,2.075,3.211,2.939,4.915      c0.222,0.42,0.445,0.84,0.617,1.259c0.173,0.37,0.346,0.716,0.494,1.087c0.296,0.667,0.568,1.333,0.84,2.025      c0.296,0.815,0.593,1.63,0.84,2.47c0.494,1.63,0.914,3.285,1.235,4.964c0.247-1.679,0.667-3.309,1.185-4.914      c0.272-0.79,0.593-1.581,0.914-2.346c0.346-0.79,0.716-1.556,1.111-2.297c0.395-0.716,0.815-1.432,1.259-2.149      c1.358-2.124,2.964-4.099,4.816-5.878c0.593-0.593,1.235-1.161,1.877-1.704c0.321-0.272,0.667-0.543,0.988-0.79      c1.013-0.79,2.05-1.482,3.136-2.149c0.716-0.42,1.457-0.84,2.223-1.21c0.741-0.37,1.507-0.716,2.297-1.013      c2.346-0.938,4.816-1.581,7.335-1.877c2.815-0.346,5.631-0.247,8.372,0.247c1.408,0.222,2.791,0.543,4.149,0.963      c1.457,0.469,2.914,1.037,4.297,1.704c0.716,0.346,1.383,0.691,2.074,1.062c1.334,0.766,2.642,1.63,3.853,2.568      c0.173,0.124,0.321,0.247,0.494,0.395c0.049,0.025,0.074,0.074,0.123,0.124c0.469,0.346,0.939,0.741,1.408,1.161      c0.494,0.445,0.988,0.914,1.457,1.383c0.593,0.593,1.136,1.21,1.679,1.852c0.444,0.543,0.864,1.111,1.284,1.679      c0.395,0.543,0.766,1.087,1.136,1.679c0.099,0.148,0.198,0.321,0.296,0.494c0.321,0.519,0.617,1.037,0.864,1.581      c0.124,0.173,0.198,0.321,0.272,0.494c0.296,0.593,0.568,1.185,0.815,1.803c-0.444-2.445-0.593-4.964-0.469-7.434      c0.025-0.346,0.049-0.716,0.099-1.087c0.025-0.247,0.049-0.494,0.074-0.766c0.049-0.445,0.099-0.889,0.173-1.334      c0.198-1.185,0.444-2.371,0.741-3.531c0.124-0.444,0.247-0.889,0.371-1.309c0.025-0.049,0.025-0.074,0.025-0.074      c0.173-0.543,0.346-1.062,0.543-1.581c0.321-0.939,0.716-1.852,1.136-2.766c0.074-0.148,0.148-0.321,0.222-0.469      c0.222-0.444,0.444-0.914,0.691-1.358c0.198-0.395,0.42-0.79,0.667-1.185c0.198-0.37,0.42-0.741,0.667-1.111      c0.42-0.691,0.864-1.334,1.358-1.976c0.247-0.346,0.494-0.667,0.741-0.988c0.321-0.42,0.667-0.815,1.012-1.21      c0.469-0.568,0.988-1.111,1.507-1.63c2.124-2.099,4.519-3.927,7.137-5.359c6.618-3.63,14.496-4.668,21.93-3.334      c1.037,0.173,2.05,0.42,3.062,0.691c0.741,0.222,1.507,0.444,2.247,0.716c0.741,0.247,1.482,0.543,2.198,0.84      c1.259,0.543,2.494,1.161,3.68,1.877c0.617,0.346,1.235,0.741,1.827,1.136c0.642,0.444,1.259,0.914,1.877,1.408      c0.617,0.494,1.21,1.012,1.803,1.531c-0.123-2-0.099-4.001,0.049-5.976c0.049-0.741,0.124-1.482,0.198-2.223      c0.099-0.741,0.198-1.482,0.346-2.198c0.074-0.469,0.148-0.938,0.247-1.408c0.173-0.963,0.395-1.926,0.667-2.865      c0.173-0.716,0.37-1.432,0.617-2.124c0.049-0.247,0.123-0.469,0.222-0.691c0.222-0.79,0.494-1.556,0.79-2.321      c0.025-0.099,0.074-0.173,0.124-0.272c0.321-0.864,0.667-1.729,1.062-2.568c0.815-1.852,1.753-3.655,2.791-5.408      c0.445-0.79,0.938-1.58,1.457-2.371c1.111-1.655,2.272-3.235,3.507-4.766c1.259-1.531,2.593-3.013,4.001-4.421      c1.408-1.383,2.865-2.717,4.396-3.976h0.025c15.065,2.544,29.635,8.1,40.378,18.868      C458.804,315.589,446.357,445.761,440.035,498.067z"/>
			</g>
			<g>
				<g>
					<g>
						<circle style="fill:#FFB861;" cx="272.641" cy="287.736" r="20.033"/>
					</g>
					<g>
						<path style="fill:#FFB861;" d="M276.91,436.48c-0.545,0-1.033-0.342-1.214-0.861l-56.49-161.578        c-0.234-0.671,0.119-1.404,0.79-1.638c0.664-0.241,1.404,0.116,1.639,0.789l55.113,157.639l42.93-160.179        c0.183-0.687,0.894-1.097,1.575-0.909c0.686,0.183,1.094,0.89,0.909,1.575l-44.009,164.209        c-0.146,0.545-0.631,0.931-1.194,0.953C276.941,436.48,276.926,436.48,276.91,436.48z"/>
					</g>
					<g>
						<ellipse style="fill:#FFB861;" cx="277.567" cy="455.229" rx="19.705" ry="22.004"/>
					</g>
					<g>
						<g>
							<path style="fill:#F7EDE5;" d="M281.452,289.516c1.143,1.121,2.747,1.995,4.303,1.616c1.445-0.352,2.449-1.693,2.973-3.085         c1.439-3.822-0.899-12.297-6.282-11.682C276.135,277.086,278.511,286.632,281.452,289.516z"/>
						</g>
						<g>
							<path style="fill:#F7EDE5;" d="M284.517,455.038c1.143,1.121,2.747,1.995,4.303,1.616c1.444-0.352,2.449-1.694,2.973-3.085         c1.439-3.822-0.899-12.297-6.282-11.682C279.2,442.608,281.577,452.154,284.517,455.038z"/>
						</g>
					</g>
				</g>
			</g>
		</g>
		<g>
			<g>
				<g>
					<path style="fill:#FFB861;" d="M403.591,114.88l-4.893,31.293c-0.124,0.792-0.724,1.424-1.507,1.591l-22.75,4.823       c-2.033,0.431-2.044,3.328-0.015,3.775l21.38,4.709c0.812,0.179,1.419,0.858,1.505,1.685l2.995,28.62       c0.228,2.183,3.342,2.354,3.808,0.209l6.134-28.255c0.148-0.683,0.654-1.233,1.322-1.437l18.099-5.539       c1.879-0.575,1.799-3.262-0.111-3.724l-19.21-4.644c-0.834-0.201-1.435-0.93-1.475-1.787l-1.443-31.11       C407.321,112.763,403.951,112.58,403.591,114.88z"/>
				</g>
			</g>
			<g>
				<g>
					<path style="fill:#FFB861;" d="M140.669,191.648l-4.526,28.951c-0.114,0.732-0.67,1.318-1.395,1.472l-21.047,4.462       c-1.881,0.399-1.891,3.079-0.014,3.493l19.78,4.356c0.751,0.166,1.313,0.794,1.393,1.559l2.77,26.477       c0.211,2.019,3.092,2.177,3.523,0.193l5.674-26.14c0.137-0.632,0.605-1.14,1.223-1.329l16.744-5.124       c1.738-0.532,1.664-3.018-0.103-3.445l-17.772-4.296c-0.772-0.186-1.328-0.86-1.365-1.654l-1.335-28.781       C144.12,189.69,141.002,189.52,140.669,191.648z"/>
				</g>
			</g>
		</g>
	</g>
</g>















</svg>
