<?xml version="1.0" standalone="no"?>
<!DOCTYPE svg PUBLIC "-//W3C//DTD SVG 20010904//EN"
 "http://www.w3.org/TR/2001/REC-SVG-20010904/DTD/svg10.dtd">
<svg version="1.0" xmlns="http://www.w3.org/2000/svg"
 width="95.000000pt" height="95.000000pt" viewBox="0 0 95.000000 95.000000"
 preserveAspectRatio="xMidYMid meet">
<metadata>
Created by potrace 1.14, written by Peter Selinger 2001-2017
</metadata>
<g transform="translate(0.000000,95.000000) scale(0.100000,-0.100000)"
fill="#000000" stroke="none">
<path d="M431 815 c-18 -23 -19 -44 -3 -57 13 -11 49 -14 151 -14 129 1 134 0
152 -23 11 -13 19 -32 19 -42 0 -11 3 -19 8 -19 4 0 12 -10 18 -23 6 -12 21
-42 34 -65 l23 -44 -184 -184 -184 -184 -177 178 c-151 151 -175 179 -164 192
7 8 25 38 38 65 63 124 71 135 92 129 12 -4 87 -72 167 -152 142 -141 164
-158 187 -143 35 22 16 51 -142 210 -87 89 -166 161 -175 162 -117 8 -109 12
-164 -93 -20 -37 -48 -89 -64 -115 -15 -26 -28 -52 -29 -58 -1 -5 -3 -14 -4
-20 -1 -5 -2 -15 -1 -21 0 -5 93 -102 205 -214 150 -150 212 -205 230 -206 20
-1 69 44 246 221 251 252 233 213 159 350 -23 44 -52 99 -63 122 -12 24 -30
46 -41 50 -32 11 -325 10 -334 -2z"/>
</g>
</svg>
