<?xml version="1.0" standalone="no"?>
<!DOCTYPE svg PUBLIC "-//W3C//DTD SVG 20010904//EN"
 "http://www.w3.org/TR/2001/REC-SVG-20010904/DTD/svg10.dtd">
<svg version="1.0" xmlns="http://www.w3.org/2000/svg"
 width="90.000000pt" height="90.000000pt" viewBox="0 0 90.000000 90.000000"
 preserveAspectRatio="xMidYMid meet">
<metadata>
Created by potrace 1.14, written by Peter Selinger 2001-2017
</metadata>
<g transform="translate(0.000000,90.000000) scale(0.100000,-0.100000)"
fill="#000000" stroke="none">
<path d="M402 818 c-7 -7 -12 -19 -12 -28 0 -35 21 -40 165 -40 l140 0 57
-108 57 -108 -184 -184 -185 -185 -175 175 -174 174 57 108 c43 82 62 108 77
108 13 0 75 -55 170 -150 82 -82 157 -150 165 -150 20 0 40 20 40 40 0 8 -73
88 -163 178 l-162 162 -56 0 c-41 0 -60 -5 -71 -17 -21 -25 -148 -267 -148
-284 0 -7 93 -107 207 -221 162 -163 213 -208 233 -208 20 0 73 47 243 218
119 120 217 224 217 231 0 17 -127 259 -148 284 -13 15 -35 17 -177 17 -112 0
-165 -4 -173 -12z"/>
</g>
</svg>
